<svg width="700" height="700" viewBox="0 0 700 700" fill="none" xmlns="http://www.w3.org/2000/svg">
<rect width="700" height="700" fill="#E5E5E5"/>
<path fill-rule="evenodd" clip-rule="evenodd" d="M292.851 386.923C338.881 396.462 482.504 377.099 562.652 296.861L562.649 296.42C649.888 209.18 628.888 86.4213 619.79 48.6203C619.009 45.4719 616.548 43.0149 613.4 42.2336C575.69 33.0466 453.19 11.8706 365.69 99.3706C334.165 130.724 316.763 166.834 307.829 201.947C293.899 256.692 268.404 340.19 274.215 368.284L274.215 368.286L383.714 259.935C388.885 255.118 396.944 255.259 401.944 260.259C406.94 265.256 407.084 273.314 402.264 278.486L292.851 386.923ZM562.649 157.023H562.645L562.649 157.024C562.625 174.532 555.653 191.313 543.266 203.68C530.883 216.051 514.09 223 496.586 223C479.082 223.023 462.285 216.078 449.906 203.703C437.531 191.324 430.586 174.527 430.609 157.023C429.957 139.097 436.621 121.675 449.074 108.765C461.524 95.851 478.691 88.558 496.629 88.558C514.567 88.558 531.735 95.851 544.184 108.765C556.638 121.675 563.302 139.097 562.649 157.023Z" fill="#CB4D09"/>
<path d="M154.115 310.951C150.611 311.345 147.213 309.603 145.494 306.525C143.771 303.447 144.068 299.638 146.24 296.861C156.275 283.185 169.654 272.31 185.092 265.275C210.869 255.045 239.322 253.72 265.94 261.513C258.467 287.107 254.522 313.599 254.217 340.263C226.631 316.521 190.147 305.837 154.117 310.951L154.115 310.951Z" fill="#CB4D09"/>
<path d="M340.226 414.25C363.871 441.75 374.574 478.074 369.624 514C369.229 517.504 370.972 520.903 374.05 522.621C377.128 524.344 380.936 524.047 383.714 521.875C397.366 511.813 408.237 498.445 415.3 483.023C425.53 457.246 426.855 428.793 419.061 402.175C393.459 409.781 366.932 413.843 340.225 414.249L340.226 414.25Z" fill="#CB4D09"/>
<path fill-rule="evenodd" clip-rule="evenodd" d="M562.645 157.023H562.649C563.302 139.097 556.638 121.675 544.184 108.765C531.735 95.851 514.567 88.558 496.629 88.558C478.691 88.558 461.524 95.851 449.074 108.765C436.621 121.675 429.957 139.097 430.609 157.023C430.586 174.527 437.531 191.324 449.906 203.703C462.285 216.078 479.082 223.023 496.586 223C514.09 223 530.883 216.051 543.266 203.68C555.653 191.313 562.625 174.532 562.649 157.024L562.645 157.023ZM446.333 148.481C453.894 138.693 465.581 132.986 477.946 133.04L477.95 132.602C488.45 132.727 498.469 137.043 505.774 144.59C514.548 153.309 518.755 165.617 517.165 177.879C515.571 190.144 508.356 200.968 497.649 207.156C486.942 213.347 473.962 214.195 462.54 209.453C451.118 204.711 442.247 200 437.28 186C432.314 172 438.771 158.266 446.333 148.481Z" fill="#1C1E2A"/>
<path fill-rule="evenodd" clip-rule="evenodd" d="M274.215 368.284L206.402 433.289C203.922 435.738 202.527 439.078 202.527 442.562C202.527 446.047 203.922 449.39 206.402 451.84C211.527 456.957 219.828 456.957 224.953 451.84L280.777 402.175C277.254 401.489 282.595 397.103 287.346 393.2C291.092 390.123 294.472 387.347 292.851 386.923C292.411 385.383 289.265 382.981 285.676 380.241C285.054 379.766 284.419 379.282 283.783 378.789C279.326 375.343 274.793 371.532 274.215 368.286L274.215 368.284ZM85.6521 459.363L98.0781 446.59L98.3395 446.675C103.579 442.46 111.16 442.886 115.891 447.667C120.625 452.445 120.98 460.027 116.715 465.226L104.203 477.914C101.773 480.418 98.4177 481.809 94.9255 481.762C91.4451 481.781 88.1013 480.391 85.6521 477.914C80.5818 472.769 80.5818 464.507 85.6521 459.363ZM200.8 380.965L155.476 426.379L155.738 426.465C153.265 428.903 149.937 430.282 146.464 430.313C141.16 430.309 136.379 427.11 134.351 422.211C132.32 417.309 133.441 411.668 137.191 407.914L182.253 362.414C187.394 357.344 195.659 357.344 200.8 362.414C203.281 364.863 204.675 368.203 204.675 371.688C204.675 375.172 203.281 378.516 200.8 380.965ZM210.777 536.453L280.777 466.453L280.777 466.449C285.898 461.304 294.223 461.285 299.371 466.406C304.52 471.531 304.539 479.856 299.414 485L229.414 555C224.261 560.129 215.929 560.129 210.777 555C205.707 549.855 205.707 541.594 210.777 536.449V536.453Z" fill="#7AB68D"/>
<path d="M191.53 481.793V481.789C189.081 479.308 185.741 477.914 182.257 477.914C178.768 477.914 175.428 479.308 172.979 481.789L130.28 524.488C127.8 526.937 126.405 530.281 126.405 533.765C126.405 537.249 127.8 540.589 130.28 543.039C135.405 548.156 143.706 548.156 148.831 543.039L191.792 500.777C194.366 498.288 195.816 494.863 195.816 491.284C195.816 487.702 194.366 484.277 191.792 481.788L191.53 481.793Z" fill="#7AB68D"/>
<path d="M292.851 386.923L402.264 278.486C407.084 273.314 406.94 265.256 401.944 260.259C396.944 255.259 388.885 255.118 383.714 259.935L274.215 368.286C274.794 371.532 279.327 375.343 283.783 378.789C284.419 379.282 285.054 379.766 285.676 380.241C289.265 382.981 292.411 385.383 292.851 386.923Z" fill="#7AB68D"/>
</svg>
