<svg width="500" height="500" viewBox="0 0 548 526" fill="none" xmlns="http://www.w3.org/2000/svg">
<path fill-rule="evenodd" clip-rule="evenodd" d="M211.851 353.923C257.881 363.462 401.504 344.099 481.652 263.861L481.649 263.42C568.888 176.18 547.888 53.4213 538.79 15.6203C538.009 12.4719 535.548 10.0149 532.4 9.23362C494.69 0.0466232 372.19 -21.1294 284.69 66.3706C253.165 97.7245 235.763 133.834 226.829 168.947C212.899 223.692 187.404 307.19 193.215 335.284L193.215 335.286L302.714 226.935C307.885 222.118 315.944 222.259 320.944 227.259C325.94 232.256 326.084 240.314 321.264 245.486L211.851 353.923ZM481.649 124.023H481.645L481.649 124.024C481.625 141.532 474.653 158.313 462.266 170.68C449.883 183.051 433.09 190 415.586 190C398.082 190.023 381.285 183.078 368.906 170.703C356.531 158.324 349.586 141.527 349.609 124.023C348.957 106.097 355.621 88.675 368.074 75.765C380.524 62.851 397.691 55.558 415.629 55.558C433.567 55.558 450.735 62.851 463.184 75.765C475.638 88.675 482.302 106.097 481.649 124.023Z" fill="#CB4D09"/>
<path d="M73.1148 277.951C69.6109 278.345 66.2125 276.603 64.4937 273.525C62.771 270.447 63.0679 266.638 65.2398 263.861C75.2748 250.185 88.6538 239.31 104.092 232.275C129.869 222.045 158.322 220.72 184.94 228.513C177.467 254.107 173.522 280.599 173.217 307.263C145.631 283.521 109.147 272.837 73.1168 277.951L73.1148 277.951Z" fill="#CB4D09"/>
<path d="M259.226 381.25C282.871 408.75 293.574 445.074 288.624 481C288.229 484.504 289.972 487.903 293.05 489.621C296.128 491.344 299.936 491.047 302.714 488.875C316.366 478.813 327.237 465.445 334.3 450.023C344.53 424.246 345.855 395.793 338.061 369.175C312.459 376.781 285.932 380.843 259.225 381.249L259.226 381.25Z" fill="#CB4D09"/>
<path fill-rule="evenodd" clip-rule="evenodd" d="M481.645 124.023H481.649C482.302 106.097 475.638 88.675 463.184 75.765C450.735 62.851 433.567 55.558 415.629 55.558C397.691 55.558 380.524 62.851 368.074 75.765C355.621 88.675 348.957 106.097 349.609 124.023C349.586 141.527 356.531 158.324 368.906 170.703C381.285 183.078 398.082 190.023 415.586 190C433.09 190 449.883 183.051 462.266 170.68C474.653 158.313 481.625 141.532 481.649 124.024L481.645 124.023ZM365.333 115.481C372.894 105.693 384.581 99.9863 396.946 100.04L396.95 99.6019C407.45 99.7269 417.469 104.043 424.774 111.59C433.548 120.309 437.755 132.617 436.165 144.879C434.571 157.144 427.356 167.968 416.649 174.156C405.942 180.347 392.962 181.195 381.54 176.453C370.118 171.711 361.247 167 356.28 153C351.314 139 357.771 125.266 365.333 115.481Z" fill="#1C1E2A"/>
<path fill-rule="evenodd" clip-rule="evenodd" d="M193.215 335.284L125.402 400.289C122.922 402.738 121.527 406.078 121.527 409.562C121.527 413.047 122.922 416.39 125.402 418.84C130.527 423.957 138.828 423.957 143.953 418.84L199.777 369.175C196.254 368.489 201.595 364.103 206.346 360.2C210.092 357.123 213.472 354.347 211.851 353.923C211.411 352.383 208.265 349.981 204.676 347.241C204.054 346.766 203.419 346.282 202.783 345.789C198.326 342.343 193.793 338.532 193.215 335.286L193.215 335.284ZM4.65206 426.363L17.0781 413.59L17.3395 413.675C22.5785 409.46 30.16 409.886 34.8905 414.667C39.625 419.445 39.9804 427.027 35.7148 432.226L23.2028 444.914C20.7732 447.418 17.4177 448.809 13.9255 448.762C10.4451 448.781 7.10126 447.391 4.65206 444.914C-0.41824 439.769 -0.41824 431.507 4.65206 426.363ZM119.8 347.965L74.4761 393.379L74.7377 393.465C72.2651 395.903 68.937 397.282 65.4643 397.313C60.1599 397.309 55.3786 394.11 53.3513 389.211C51.32 384.309 52.4411 378.668 56.1911 374.914L101.253 329.414C106.394 324.344 114.659 324.344 119.8 329.414C122.281 331.863 123.675 335.203 123.675 338.688C123.675 342.172 122.281 345.516 119.8 347.965ZM129.777 503.453L199.777 433.453L199.777 433.449C204.898 428.304 213.223 428.285 218.371 433.406C223.52 438.531 223.539 446.856 218.414 452L148.414 522C143.261 527.129 134.929 527.129 129.777 522C124.707 516.855 124.707 508.594 129.777 503.449V503.453Z" fill="#7AB68D"/>
<path d="M110.53 448.793V448.789C108.081 446.308 104.741 444.914 101.257 444.914C97.7683 444.914 94.4285 446.308 91.9793 448.789L49.2803 491.488C46.7998 493.937 45.4053 497.281 45.4053 500.765C45.4053 504.249 46.7998 507.589 49.2803 510.039C54.4053 515.156 62.7063 515.156 67.8313 510.039L110.792 467.777C113.366 465.288 114.816 461.863 114.816 458.284C114.816 454.702 113.366 451.277 110.792 448.788L110.53 448.793Z" fill="#7AB68D"/>
<path d="M211.851 353.923L321.264 245.486C326.084 240.314 325.94 232.256 320.944 227.259C315.944 222.259 307.885 222.118 302.714 226.935L193.215 335.286C193.794 338.532 198.327 342.343 202.783 345.789C203.419 346.282 204.054 346.766 204.676 347.241C208.265 349.981 211.411 352.383 211.851 353.923Z" fill="#7AB68D"/>
</svg>
