<?xml version="1.0" encoding="UTF-8"?>
<svg width="100pt" height="100pt" version="1.1" viewBox="0 0 700 700" xmlns="http://www.w3.org/2000/svg" xmlns:xlink="http://www.w3.org/1999/xlink">
 <defs>
  <symbol id="n" overflow="visible">
   <path d="m37.516-2.25c-1.9297 1.0117-3.9453 1.7734-6.0469 2.2812-2.0938 0.50781-4.2812 0.76562-6.5625 0.76562-6.793 0-12.18-1.8984-16.156-5.7031-3.9688-3.8008-5.9531-8.957-5.9531-15.469 0-6.5195 1.9844-11.68 5.9531-15.484 3.9766-3.8008 9.3633-5.7031 16.156-5.7031 2.2812 0 4.4688 0.25781 6.5625 0.76562 2.1016 0.51172 4.1172 1.2656 6.0469 2.2656v8.4531c-1.9492-1.332-3.8711-2.3047-5.7656-2.9219-1.8984-0.625-3.8906-0.9375-5.9844-0.9375-3.7617 0-6.7188 1.2031-8.875 3.6094-2.1484 2.4062-3.2188 5.7266-3.2188 9.9531 0 4.2109 1.0703 7.5156 3.2188 9.9219 2.1562 2.4062 5.1133 3.6094 8.875 3.6094 2.0938 0 4.0859-0.30469 5.9844-0.92188 1.8945-0.625 3.8164-1.5977 5.7656-2.9219z"/>
  </symbol>
  <symbol id="i" overflow="visible">
   <path d="m27.453-22.281c-0.85547-0.40625-1.7109-0.70312-2.5625-0.89062-0.84375-0.19531-1.6953-0.29688-2.5469-0.29688-2.5234 0-4.4609 0.80859-5.8125 2.4219-1.3555 1.6172-2.0312 3.9297-2.0312 6.9375v14.109h-9.7969v-30.625h9.7969v5.0312c1.25-2.0078 2.6914-3.4727 4.3281-4.3906 1.6328-0.91406 3.5859-1.375 5.8594-1.375 0.33203 0 0.6875 0.015625 1.0625 0.046875 0.38281 0.023438 0.94141 0.078125 1.6719 0.17188z"/>
  </symbol>
  <symbol id="b" overflow="visible">
   <path d="m35.281-15.391v2.7812h-22.891c0.23828 2.3047 1.0664 4.0273 2.4844 5.1719 1.4258 1.1484 3.4141 1.7188 5.9688 1.7188 2.0508 0 4.1562-0.30078 6.3125-0.90625 2.1641-0.61328 4.3906-1.5391 6.6719-2.7812v7.5469c-2.3125 0.875-4.6328 1.5391-6.9531 1.9844-2.3125 0.44531-4.625 0.67188-6.9375 0.67188-5.543 0-9.8516-1.4062-12.922-4.2188-3.0742-2.8203-4.6094-6.7734-4.6094-11.859 0-5 1.5039-8.9258 4.5156-11.781 3.0195-2.8633 7.1758-4.2969 12.469-4.2969 4.8125 0 8.6602 1.4492 11.547 4.3438 2.8945 2.8984 4.3438 6.7734 4.3438 11.625zm-10.062-3.2656c0-1.8516-0.54688-3.3477-1.6406-4.4844-1.0859-1.1445-2.5-1.7188-4.25-1.7188-1.8984 0-3.4375 0.53906-4.625 1.6094-1.1797 1.0625-1.9141 2.5938-2.2031 4.5938z"/>
  </symbol>
  <symbol id="h" overflow="visible">
   <path d="m18.438-13.781c-2.043 0-3.5781 0.35156-4.6094 1.0469-1.0312 0.6875-1.5469 1.7031-1.5469 3.0469 0 1.2422 0.41016 2.2148 1.2344 2.9219 0.83203 0.69922 1.9883 1.0469 3.4688 1.0469 1.8438 0 3.3906-0.66016 4.6406-1.9844 1.2578-1.3203 1.8906-2.9727 1.8906-4.9531v-1.125zm14.953-3.6875v17.469h-9.875v-4.5469c-1.3125 1.8672-2.793 3.2266-4.4375 4.0781-1.6367 0.84375-3.6328 1.2656-5.9844 1.2656-3.168 0-5.7422-0.92578-7.7188-2.7812-1.9805-1.8516-2.9688-4.2539-2.9688-7.2031 0-3.5938 1.2344-6.2266 3.7031-7.9062 2.4688-1.6758 6.3477-2.5156 11.641-2.5156h5.7656v-0.76562c0-1.5508-0.60938-2.6875-1.8281-3.4062s-3.125-1.0781-5.7188-1.0781c-2.0938 0-4.0469 0.21484-5.8594 0.64062-1.8047 0.41797-3.4766 1.043-5.0156 1.875v-7.4688c2.0938-0.50781 4.1953-0.89453 6.3125-1.1562 2.1133-0.25781 4.2266-0.39062 6.3438-0.39062 5.5195 0 9.5039 1.0898 11.953 3.2656 2.457 2.1797 3.6875 5.7188 3.6875 10.625z"/>
  </symbol>
  <symbol id="a" overflow="visible">
   <path d="m15.391-39.328v8.7031h10.094v7h-10.094v12.984c0 1.4297 0.28125 2.3906 0.84375 2.8906 0.57031 0.5 1.6953 0.75 3.375 0.75h5.0312v7h-8.3906c-3.8672 0-6.6055-0.80469-8.2188-2.4219-1.6172-1.6133-2.4219-4.3516-2.4219-8.2188v-12.984h-4.875v-7h4.875v-8.7031z"/>
  </symbol>
  <symbol id="g" overflow="visible">
   <path d="m25.547-26.141v-16.406h9.8438v42.547h-9.8438v-4.4375c-1.3555 1.8125-2.8438 3.1406-4.4688 3.9844-1.6172 0.83203-3.4922 1.25-5.625 1.25-3.7734 0-6.8711-1.5-9.2969-4.5-2.4297-3-3.6406-6.8594-3.6406-11.578 0-4.7266 1.2109-8.5859 3.6406-11.578 2.4258-3 5.5234-4.5 9.2969-4.5 2.1133 0 3.9844 0.42188 5.6094 1.2656 1.6328 0.84375 3.1289 2.1641 4.4844 3.9531zm-6.4531 19.828c2.0938 0 3.6914-0.76562 4.7969-2.2969 1.1016-1.5312 1.6562-3.7539 1.6562-6.6719 0-2.9141-0.55469-5.1406-1.6562-6.6719-1.1055-1.5312-2.7031-2.2969-4.7969-2.2969-2.0859 0-3.6797 0.76562-4.7812 2.2969-1.1055 1.5312-1.6562 3.7578-1.6562 6.6719 0 2.918 0.55078 5.1406 1.6562 6.6719 1.1016 1.5312 2.6953 2.2969 4.7812 2.2969z"/>
  </symbol>
  <symbol id="f" overflow="visible">
   <path d="m21-6.3125c2.0938 0 3.6914-0.76562 4.7969-2.2969 1.1016-1.5312 1.6562-3.7539 1.6562-6.6719 0-2.9141-0.55469-5.1406-1.6562-6.6719-1.1055-1.5312-2.7031-2.2969-4.7969-2.2969s-3.7031 0.77344-4.8281 2.3125c-1.1172 1.5312-1.6719 3.75-1.6719 6.6562 0 2.8984 0.55469 5.1172 1.6719 6.6562 1.125 1.543 2.7344 2.3125 4.8281 2.3125zm-6.5-19.828c1.3438-1.7891 2.832-3.1094 4.4688-3.9531 1.6445-0.84375 3.5352-1.2656 5.6719-1.2656 3.7695 0 6.8672 1.5 9.2969 4.5 2.4258 2.9922 3.6406 6.8516 3.6406 11.578 0 4.7188-1.2148 8.5781-3.6406 11.578-2.4297 3-5.5273 4.5-9.2969 4.5-2.1367 0-4.0273-0.42188-5.6719-1.2656-1.6367-0.85156-3.125-2.1758-4.4688-3.9688v4.4375h-9.7969v-42.547h9.7969z"/>
  </symbol>
  <symbol id="e" overflow="visible">
   <path d="m0.6875-30.625h9.7812l8.2344 20.781 7-20.781h9.7969l-12.891 33.531c-1.293 3.4062-2.8047 5.7852-4.5312 7.1406-1.7188 1.3633-3.9922 2.0469-6.8125 2.0469h-5.6562v-6.4375h3.0625c1.6562 0 2.8594-0.26562 3.6094-0.79688 0.75781-0.52344 1.3516-1.4648 1.7812-2.8281l0.26562-0.85938z"/>
  </symbol>
  <symbol id="d" overflow="visible">
   <path d="m15.672-32.875v24.922h3.7656c4.3008 0 7.5859-1.0664 9.8594-3.2031 2.2695-2.1328 3.4062-5.2344 3.4062-9.2969 0-4.0508-1.1328-7.1328-3.3906-9.25-2.2617-2.1133-5.5547-3.1719-9.875-3.1719zm-10.531-7.9531h11.109c6.1953 0 10.812 0.44531 13.844 1.3281 3.0312 0.88672 5.6328 2.3867 7.8125 4.5 1.9062 1.8438 3.3203 3.9688 4.25 6.375 0.9375 2.4062 1.4062 5.1328 1.4062 8.1719 0 3.0859-0.46875 5.8359-1.4062 8.25-0.92969 2.4062-2.3438 4.5312-4.25 6.375-2.1875 2.1172-4.8125 3.6172-7.875 4.5-3.0625 0.88672-7.6562 1.3281-13.781 1.3281h-11.109z"/>
  </symbol>
  <symbol id="m" overflow="visible">
   <path d="m4.7031-30.625h9.7969v30.625h-9.7969zm0-11.922h9.7969v7.9844h-9.7969z"/>
  </symbol>
  <symbol id="l" overflow="visible">
   <path d="m35.5-18.656v18.656h-9.8438v-14.281c0-2.6328-0.0625-4.4531-0.1875-5.4531-0.11719-1.0078-0.32031-1.75-0.60938-2.2188-0.38672-0.64453-0.90625-1.1445-1.5625-1.5-0.65625-0.35156-1.4023-0.53125-2.2344-0.53125-2.043 0-3.6484 0.79297-4.8125 2.375-1.168 1.5742-1.75 3.7578-1.75 6.5469v15.062h-9.7969v-30.625h9.7969v4.4844c1.4688-1.7891 3.0312-3.1094 4.6875-3.9531 1.6641-0.84375 3.5-1.2656 5.5-1.2656 3.5391 0 6.2266 1.0859 8.0625 3.25 1.832 2.168 2.75 5.3203 2.75 9.4531z"/>
  </symbol>
  <symbol id="c" overflow="visible">
   <path d="m19.281-24.359c-2.168 0-3.8242 0.78125-4.9688 2.3438-1.1367 1.5547-1.7031 3.7969-1.7031 6.7344 0 2.9297 0.56641 5.1719 1.7031 6.7344 1.1445 1.5625 2.8008 2.3438 4.9688 2.3438 2.1328 0 3.7656-0.78125 4.8906-2.3438 1.1328-1.5625 1.7031-3.8047 1.7031-6.7344 0-2.9375-0.57031-5.1797-1.7031-6.7344-1.125-1.5625-2.7578-2.3438-4.8906-2.3438zm0-7c5.2695 0 9.3828 1.4219 12.344 4.2656 2.957 2.8438 4.4375 6.7812 4.4375 11.812s-1.4805 8.9688-4.4375 11.812c-2.9609 2.8438-7.0742 4.2656-12.344 4.2656-5.293 0-9.4297-1.4219-12.406-4.2656-2.9805-2.8438-4.4688-6.7812-4.4688-11.812s1.4883-8.9688 4.4688-11.812c2.9766-2.8438 7.1133-4.2656 12.406-4.2656z"/>
  </symbol>
  <symbol id="k" overflow="visible">
   <path d="m28.625-29.672v7.4375c-2.0938-0.875-4.1172-1.5312-6.0625-1.9688-1.9492-0.4375-3.793-0.65625-5.5312-0.65625-1.8555 0-3.2344 0.23438-4.1406 0.70312-0.89844 0.46094-1.3438 1.1719-1.3438 2.1406 0 0.78125 0.33594 1.3867 1.0156 1.8125 0.6875 0.41797 1.9141 0.72656 3.6875 0.92188l1.7188 0.25c5.0078 0.63672 8.3789 1.6836 10.109 3.1406 1.7383 1.4609 2.6094 3.7461 2.6094 6.8594 0 3.2734-1.2031 5.7305-3.6094 7.375-2.4062 1.6367-6 2.4531-10.781 2.4531-2.0234 0-4.1172-0.16406-6.2812-0.48438-2.1562-0.32031-4.375-0.80078-6.6562-1.4375v-7.4375c1.957 0.94922 3.957 1.6641 6 2.1406 2.0508 0.46875 4.1328 0.70312 6.25 0.70312 1.9141 0 3.3594-0.25781 4.3281-0.78125 0.96875-0.53125 1.4531-1.3164 1.4531-2.3594 0-0.875-0.33594-1.5234-1-1.9531-0.66797-0.42578-1.9961-0.75781-3.9844-1l-1.7188-0.21875c-4.3555-0.55078-7.4062-1.5625-9.1562-3.0312-1.75-1.4766-2.625-3.7227-2.625-6.7344 0-3.2383 1.1094-5.6406 3.3281-7.2031 2.2266-1.5703 5.6406-2.3594 10.234-2.3594 1.8008 0 3.6914 0.13672 5.6719 0.40625 1.9883 0.27344 4.1484 0.69922 6.4844 1.2812z"/>
  </symbol>
  <symbol id="j" overflow="visible">
   <path d="m24.859-42.547v6.4219h-5.4219c-1.3867 0-2.3555 0.25-2.9062 0.75-0.54297 0.5-0.8125 1.3711-0.8125 2.6094v2.1406h8.375v7h-8.375v23.625h-9.7812v-23.625h-4.875v-7h4.875v-2.1406c0-3.332 0.92578-5.7969 2.7812-7.3906 1.8633-1.5938 4.7422-2.3906 8.6406-2.3906z"/>
  </symbol>
 </defs>
 <path transform="matrix(11.2 0 0 11.2 70 3.979e-14)" d="m25 14v7.5" fill="none" stroke="#000" stroke-miterlimit="10" stroke-width="2"/>
 <path transform="matrix(11.2 0 0 11.2 70 3.979e-14)" d="m27.4 35c0-5.4 5.5999-8.0001 5.5999-8.0001l-6.4-13-1.5998 3.49e-4" fill="none" stroke="#000" stroke-miterlimit="10" stroke-width="2"/>
 <path transform="matrix(11.2 0 0 11.2 70 3.979e-14)" d="m22.6 35c0-5.4-5.5999-8.0001-5.5999-8.0001l6.4-13 1.5998 3.49e-4" fill="none" stroke="#000" stroke-miterlimit="10" stroke-width="2"/>
 <path transform="matrix(11.2 0 0 11.2 70 3.979e-14)" d="m26.6 23c0 0.88344-0.71638 1.5998-1.6002 1.5998s-1.6002-0.71638-1.6002-1.5998c0-0.88379 0.71638-1.6002 1.6002-1.6002s1.6002 0.71638 1.6002 1.6002" fill="none" stroke="#000" stroke-miterlimit="10" stroke-width="2"/>
 <path transform="matrix(11.2 0 0 11.2 70 3.979e-14)" d="m1.9999 1.9999h46v39h-46z" fill="none" stroke="#000" stroke-miterlimit="10" stroke-width="2"/>
 <path transform="matrix(11.2 0 0 11.2 70 3.979e-14)" d="m17 41v7.0002" fill="none" stroke="#000" stroke-miterlimit="10" stroke-width="2"/>
 <path transform="matrix(11.2 0 0 11.2 70 3.979e-14)" d="m33 41v7.0002" fill="none" stroke="#000" stroke-miterlimit="10" stroke-width="2"/>
 <path transform="matrix(11.2 0 0 11.2 70 3.979e-14)" d="m12 48h26" fill="none" stroke="#000" stroke-miterlimit="10" stroke-width="2"/>
 <path transform="matrix(11.2 0 0 11.2 70 3.979e-14)" d="m48 35h-46" fill="none" stroke="#000" stroke-miterlimit="10" stroke-width="2"/>
 <path transform="matrix(11.2 0 0 11.2 70 3.979e-14)" d="m38 23h4.0001v4.0001h-4.0001z" fill="none" stroke="#000" stroke-miterlimit="10" stroke-width="2"/>
 <path transform="matrix(11.2 0 0 11.2 70 3.979e-14)" d="m23 5.9999h4.0001v4.0001h-4.0001z" fill="none" stroke="#000" stroke-miterlimit="10" stroke-width="2"/>
 <path transform="matrix(11.2 0 0 11.2 70 3.979e-14)" d="m8.0001 23h4.0001v4.0001h-4.0001z" fill="none" stroke="#000" stroke-miterlimit="10" stroke-width="2"/>
 <path transform="matrix(11.2 0 0 11.2 70 3.979e-14)" d="m23 8.0999c-7.3002 0.99993-13 7.3002-13 14.9" fill="none" stroke="#000" stroke-miterlimit="10" stroke-width="2"/>
 <path transform="matrix(11.2 0 0 11.2 70 3.979e-14)" d="m40 23c0-7.6001-5.7-13.9-13-14.9" fill="none" stroke="#000" stroke-miterlimit="10" stroke-width="2"/>
 <path transform="matrix(11.2 0 0 11.2 70 3.979e-14)" d="m27 8.0001h13" fill="none" stroke="#000" stroke-miterlimit="10" stroke-width="2"/>
 <path transform="matrix(11.2 0 0 11.2 70 3.979e-14)" d="m40 5.9999h4.0001v4.0001h-4.0001z" fill="none" stroke="#000" stroke-miterlimit="10" stroke-width="2"/>
 <path transform="matrix(11.2 0 0 11.2 70 3.979e-14)" d="m23 8.0001h-13" fill="none" stroke="#000" stroke-miterlimit="10" stroke-width="2"/>
 <path transform="matrix(-11.2 4.9913e-10 -4.9913e-10 -11.2 249.2 179.2)" d="m6 6h4.0001v4.0001h-4.0001z" fill="none" stroke="#000" stroke-miterlimit="10" stroke-width="2"/>
 <g>
 
 </g>
</svg>
