<?xml version="1.0" encoding="UTF-8"?>
<svg width="100pt" height="100pt" version="1.1" viewBox="0 0 700 700" xmlns="http://www.w3.org/2000/svg" xmlns:xlink="http://www.w3.org/1999/xlink">
 <defs>
  <symbol id="v" overflow="visible">
   <path d="m3.125-0.1875c-0.15625 0.085938-0.32422 0.14844-0.5 0.1875-0.17969 0.039062-0.35938 0.0625-0.54688 0.0625-0.5625 0-1.0117-0.15625-1.3438-0.46875-0.33594-0.32031-0.5-0.75391-0.5-1.2969 0-0.53906 0.16406-0.96875 0.5-1.2812 0.33203-0.32031 0.78125-0.48438 1.3438-0.48438 0.1875 0 0.36719 0.023438 0.54688 0.0625 0.17578 0.042969 0.34375 0.10547 0.5 0.1875v0.70312c-0.15625-0.10156-0.32031-0.17969-0.48438-0.23438-0.15625-0.050781-0.32031-0.078125-0.48438-0.078125-0.32422 0-0.57422 0.10156-0.75 0.29688-0.17969 0.19922-0.26562 0.47656-0.26562 0.82812 0 0.35547 0.085937 0.63672 0.26562 0.84375 0.17578 0.19922 0.42578 0.29688 0.75 0.29688 0.16406 0 0.32812-0.023438 0.48438-0.078125 0.16406-0.050781 0.32812-0.13281 0.48438-0.25z"/>
  </symbol>
  <symbol id="c" overflow="visible">
   <path d="m2.2969-1.8594c-0.074219-0.03125-0.14844-0.050781-0.21875-0.0625-0.074219-0.019531-0.14844-0.03125-0.21875-0.03125-0.21094 0-0.37109 0.070313-0.48438 0.20312-0.11719 0.13672-0.17188 0.32812-0.17188 0.57812v1.1719h-0.8125v-2.5625h0.8125v0.42188c0.10156-0.16406 0.22266-0.28516 0.35938-0.35938 0.14453-0.070312 0.3125-0.10938 0.5-0.10938h0.078125c0.039063 0 0.085937 0.007813 0.14062 0.015625z"/>
  </symbol>
  <symbol id="b" overflow="visible">
   <path d="m2.9375-1.2812v0.23438h-1.9062c0.019531 0.1875 0.085938 0.32812 0.20312 0.42188 0.125 0.09375 0.28906 0.14062 0.5 0.14062 0.17578 0 0.35156-0.019531 0.53125-0.0625 0.17578-0.050781 0.36328-0.12891 0.5625-0.23438v0.625c-0.19922 0.074219-0.39844 0.125-0.59375 0.15625-0.1875 0.039062-0.38281 0.0625-0.57812 0.0625-0.46094 0-0.82031-0.11328-1.0781-0.34375-0.25-0.23828-0.375-0.57031-0.375-1 0-0.41406 0.125-0.73828 0.375-0.96875 0.25-0.23828 0.59766-0.35938 1.0469-0.35938 0.39453 0 0.71094 0.12109 0.95312 0.35938 0.23828 0.24219 0.35938 0.5625 0.35938 0.96875zm-0.82812-0.28125c0-0.14453-0.046875-0.26562-0.14062-0.35938-0.09375-0.10156-0.21484-0.15625-0.35938-0.15625-0.15625 0-0.28906 0.046875-0.39062 0.14062-0.09375 0.085938-0.15234 0.21094-0.17188 0.375z"/>
  </symbol>
  <symbol id="j" overflow="visible">
   <path d="m1.5312-1.1562c-0.16797 0-0.29297 0.03125-0.375 0.09375-0.085938 0.0625-0.125 0.14844-0.125 0.25 0 0.10547 0.03125 0.1875 0.09375 0.25 0.070312 0.054688 0.17188 0.078125 0.29688 0.078125 0.14453 0 0.26953-0.050781 0.375-0.15625 0.11328-0.11328 0.17188-0.25391 0.17188-0.42188v-0.09375zm1.25-0.29688v1.4531h-0.8125v-0.375c-0.11719 0.15625-0.24219 0.27344-0.375 0.34375-0.13672 0.0625-0.30469 0.09375-0.5 0.09375-0.26172 0-0.47656-0.070312-0.64062-0.21875-0.16797-0.15625-0.25-0.35938-0.25-0.60938 0-0.30078 0.097656-0.51953 0.29688-0.65625 0.20703-0.14453 0.53516-0.21875 0.98438-0.21875h0.48438v-0.0625c0-0.125-0.054688-0.21875-0.15625-0.28125-0.10547-0.0625-0.26562-0.09375-0.48438-0.09375-0.17969 0-0.33984 0.023437-0.48438 0.0625-0.14844 0.03125-0.28906 0.085937-0.42188 0.15625v-0.625c0.17578-0.039063 0.35156-0.070313 0.53125-0.09375 0.17578-0.019531 0.35156-0.03125 0.53125-0.03125 0.45703 0 0.78516 0.089844 0.98438 0.26562 0.20703 0.17969 0.3125 0.47656 0.3125 0.89062z"/>
  </symbol>
  <symbol id="a" overflow="visible">
   <path d="m1.2812-3.2812v0.71875h0.84375v0.59375h-0.84375v1.0781c0 0.125 0.019531 0.21094 0.0625 0.25 0.050781 0.042969 0.14844 0.0625 0.29688 0.0625h0.42188v0.57812h-0.70312c-0.32422 0-0.55469-0.066406-0.6875-0.20312-0.13672-0.13281-0.20312-0.36328-0.20312-0.6875v-1.0781h-0.40625v-0.59375h0.40625v-0.71875z"/>
  </symbol>
  <symbol id="i" overflow="visible">
   <path d="m2.125-2.1875v-1.3594h0.82812v3.5469h-0.82812v-0.375c-0.10547 0.15625-0.22656 0.27344-0.35938 0.34375-0.13672 0.0625-0.29688 0.09375-0.48438 0.09375-0.3125 0-0.57422-0.125-0.78125-0.375-0.19922-0.25-0.29688-0.57031-0.29688-0.96875 0-0.38281 0.097656-0.70312 0.29688-0.95312 0.20703-0.25 0.46875-0.375 0.78125-0.375 0.17578 0 0.33203 0.039063 0.46875 0.10938 0.14453 0.0625 0.26953 0.16797 0.375 0.3125zm-0.53125 1.6562c0.17578 0 0.30469-0.0625 0.39062-0.1875 0.09375-0.125 0.14062-0.3125 0.14062-0.5625 0-0.23828-0.046875-0.42188-0.14062-0.54688-0.085937-0.125-0.21484-0.1875-0.39062-0.1875-0.17969 0-0.3125 0.0625-0.40625 0.1875-0.085938 0.125-0.125 0.30859-0.125 0.54688 0 0.25 0.039062 0.4375 0.125 0.5625 0.09375 0.125 0.22656 0.1875 0.40625 0.1875z"/>
  </symbol>
  <symbol id="h" overflow="visible">
   <path d="m1.75-0.53125c0.17578 0 0.3125-0.0625 0.40625-0.1875s0.14062-0.3125 0.14062-0.5625c0-0.23828-0.046875-0.42188-0.14062-0.54688s-0.23047-0.1875-0.40625-0.1875c-0.17969 0-0.3125 0.0625-0.40625 0.1875s-0.14062 0.30859-0.14062 0.54688c0 0.25 0.046875 0.4375 0.14062 0.5625s0.22656 0.1875 0.40625 0.1875zm-0.54688-1.6562c0.11328-0.14453 0.23828-0.25 0.375-0.3125 0.13281-0.070312 0.29688-0.10938 0.48438-0.10938 0.3125 0 0.56641 0.125 0.76562 0.375 0.20703 0.25 0.3125 0.57031 0.3125 0.95312 0 0.39844-0.10547 0.71875-0.3125 0.96875-0.19922 0.25-0.45312 0.375-0.76562 0.375-0.1875 0-0.35156-0.03125-0.48438-0.09375-0.13672-0.070312-0.26172-0.1875-0.375-0.34375v0.375h-0.8125v-3.5469h0.8125z"/>
  </symbol>
  <symbol id="g" overflow="visible">
   <path d="m0.0625-2.5625h0.8125l0.6875 1.7344 0.57812-1.7344h0.82812l-1.0781 2.7969c-0.11719 0.28906-0.24609 0.49219-0.39062 0.60938-0.13672 0.11328-0.32422 0.17188-0.5625 0.17188h-0.46875v-0.54688h0.25c0.14453 0 0.25-0.023438 0.3125-0.0625 0.0625-0.042969 0.10938-0.12109 0.14062-0.23438l0.03125-0.078125z"/>
  </symbol>
  <symbol id="e" overflow="visible">
   <path d="m2.9688-1.5625v1.5625h-0.82812v-1.1875c0-0.21875-0.007813-0.36719-0.015625-0.45312-0.011719-0.082031-0.027344-0.14453-0.046875-0.1875-0.03125-0.050781-0.078125-0.09375-0.14062-0.125-0.054688-0.03125-0.11719-0.046875-0.1875-0.046875-0.16797 0-0.30469 0.070312-0.40625 0.20312-0.09375 0.125-0.14062 0.30859-0.14062 0.54688v1.25h-0.8125v-2.5625h0.8125v0.375c0.125-0.14453 0.25391-0.25 0.39062-0.3125 0.14453-0.070312 0.30078-0.10938 0.46875-0.10938 0.28906 0 0.51562 0.089844 0.67188 0.26562 0.15625 0.17969 0.23438 0.4375 0.23438 0.78125z"/>
  </symbol>
  <symbol id="u" overflow="visible">
   <path d="m0.39062-2.5625h0.8125v2.5625h-0.8125zm0-0.98438h0.8125v0.65625h-0.8125z"/>
  </symbol>
  <symbol id="f" overflow="visible">
   <path d="m0.35938-1v-1.5625h0.82812v0.26562 0.51562 0.42188c0 0.21094 0.003906 0.35938 0.015625 0.45312 0.007813 0.085938 0.023437 0.14844 0.046875 0.1875 0.03125 0.054688 0.070312 0.09375 0.125 0.125 0.0625 0.03125 0.125 0.046875 0.1875 0.046875 0.17578 0 0.3125-0.0625 0.40625-0.1875 0.09375-0.13281 0.14062-0.32031 0.14062-0.5625v-1.2656h0.82812v2.5625h-0.82812v-0.375c-0.11719 0.15625-0.24609 0.27344-0.39062 0.34375-0.13672 0.0625-0.28906 0.09375-0.45312 0.09375-0.29297 0-0.51562-0.085938-0.67188-0.26562-0.15625-0.1875-0.23438-0.45312-0.23438-0.79688z"/>
  </symbol>
  <symbol id="t" overflow="visible">
   <path d="m0.3125-3.4062h2.5625v0.5l-1.3281 2.9062h-0.84375l1.25-2.7656h-1.6406z"/>
  </symbol>
  <symbol id="s" overflow="visible">
   <path d="m1.625-1.5312c-0.16797 0-0.29688 0.046875-0.39062 0.14062-0.085937 0.09375-0.125 0.22656-0.125 0.39062 0 0.16797 0.039063 0.29688 0.125 0.39062 0.09375 0.085937 0.22266 0.125 0.39062 0.125 0.16406 0 0.28906-0.039063 0.375-0.125 0.082031-0.09375 0.125-0.22266 0.125-0.39062 0-0.16406-0.042969-0.29688-0.125-0.39062-0.085938-0.09375-0.21094-0.14062-0.375-0.14062zm-0.64062-0.28125c-0.21094-0.0625-0.36719-0.15625-0.46875-0.28125-0.10547-0.13281-0.15625-0.29688-0.15625-0.48438 0-0.28906 0.10156-0.50781 0.3125-0.65625 0.21875-0.15625 0.53516-0.23438 0.95312-0.23438 0.41406 0 0.72656 0.078125 0.9375 0.23438 0.21875 0.14844 0.32812 0.36719 0.32812 0.65625 0 0.1875-0.054687 0.35156-0.15625 0.48438-0.10547 0.125-0.26172 0.21875-0.46875 0.28125 0.22656 0.0625 0.39844 0.16797 0.51562 0.3125 0.125 0.14844 0.1875 0.32812 0.1875 0.54688 0 0.33594-0.11719 0.58984-0.34375 0.76562-0.23047 0.16797-0.5625 0.25-1 0.25s-0.77344-0.082031-1-0.25c-0.23047-0.17578-0.34375-0.42969-0.34375-0.76562 0-0.21875 0.054688-0.39844 0.17188-0.54688 0.125-0.14453 0.30078-0.25 0.53125-0.3125zm0.20312-0.6875c0 0.13672 0.035156 0.24219 0.10938 0.3125 0.082031 0.074219 0.19141 0.10938 0.32812 0.10938 0.13281 0 0.23828-0.035156 0.3125-0.10938 0.082031-0.070312 0.125-0.17578 0.125-0.3125 0-0.13281-0.042969-0.23828-0.125-0.3125-0.074219-0.070312-0.17969-0.10938-0.3125-0.10938-0.13672 0-0.24609 0.039063-0.32812 0.10938-0.074219 0.074219-0.10938 0.17969-0.10938 0.3125z"/>
  </symbol>
  <symbol id="r" overflow="visible">
   <path d="m1.6875-1.6875c-0.15625 0-0.27344 0.054688-0.34375 0.15625-0.074219 0.10547-0.10938 0.25781-0.10938 0.45312 0 0.19922 0.035156 0.35156 0.10938 0.45312 0.070312 0.09375 0.1875 0.14062 0.34375 0.14062s0.26953-0.046875 0.34375-0.14062c0.082031-0.10156 0.125-0.25391 0.125-0.45312 0-0.19531-0.042969-0.34766-0.125-0.45312-0.074219-0.10156-0.1875-0.15625-0.34375-0.15625zm1.0938-1.625v0.625c-0.14844-0.070312-0.28906-0.125-0.42188-0.15625-0.125-0.03125-0.24609-0.046875-0.35938-0.046875-0.27344 0-0.48047 0.074219-0.625 0.21875-0.14844 0.14844-0.23047 0.36719-0.25 0.65625 0.10156-0.082031 0.21094-0.14062 0.32812-0.17188 0.11328-0.039062 0.24219-0.0625 0.39062-0.0625 0.34375 0 0.61719 0.10547 0.82812 0.3125 0.21875 0.19922 0.32812 0.46484 0.32812 0.79688 0 0.36719-0.12109 0.65625-0.35938 0.875-0.24219 0.21875-0.55859 0.32812-0.95312 0.32812-0.44922 0-0.79297-0.14453-1.0312-0.4375-0.24219-0.30078-0.35938-0.72656-0.35938-1.2812 0-0.5625 0.14062-1.0039 0.42188-1.3281 0.28125-0.32031 0.66406-0.48438 1.1562-0.48438 0.15625 0 0.30469 0.015625 0.45312 0.046875 0.15625 0.023437 0.30469 0.058594 0.45312 0.10938z"/>
  </symbol>
  <symbol id="q" overflow="visible">
   <path d="m2.0781-3.5469v0.53125h-0.45312c-0.11719 0-0.19922 0.023437-0.25 0.0625-0.042969 0.042969-0.0625 0.11719-0.0625 0.21875v0.17188h0.70312v0.59375h-0.70312v1.9688h-0.8125v-1.9688h-0.40625v-0.59375h0.40625v-0.17188c0-0.28125 0.070312-0.48438 0.21875-0.60938 0.15625-0.13281 0.39844-0.20312 0.73438-0.20312z"/>
  </symbol>
  <symbol id="d" overflow="visible">
   <path d="m1.6094-2.0312c-0.17969 0-0.32031 0.070312-0.42188 0.20312-0.09375 0.125-0.14062 0.30859-0.14062 0.54688 0 0.25 0.046875 0.44531 0.14062 0.57812 0.10156 0.125 0.24219 0.1875 0.42188 0.1875 0.17578 0 0.3125-0.0625 0.40625-0.1875 0.09375-0.13281 0.14062-0.32812 0.14062-0.57812 0-0.23828-0.046875-0.42188-0.14062-0.54688-0.09375-0.13281-0.23047-0.20312-0.40625-0.20312zm0-0.57812c0.4375 0 0.78125 0.12109 1.0312 0.35938 0.25 0.23047 0.375 0.55469 0.375 0.96875 0 0.42969-0.125 0.76172-0.375 1-0.25 0.23047-0.59375 0.34375-1.0312 0.34375s-0.78125-0.11328-1.0312-0.34375c-0.25-0.23828-0.375-0.57031-0.375-1 0-0.41406 0.125-0.73828 0.375-0.96875 0.25-0.23828 0.59375-0.35938 1.0312-0.35938z"/>
  </symbol>
  <symbol id="p" overflow="visible">
   <path d="m2.7656-2.125c0.10156-0.16406 0.22266-0.28516 0.35938-0.35938 0.14453-0.082031 0.30078-0.125 0.46875-0.125 0.28906 0 0.51562 0.089844 0.67188 0.26562 0.15625 0.17969 0.23438 0.4375 0.23438 0.78125v1.5625h-0.82812v-1.3281-0.0625c0.007813-0.019531 0.015625-0.050781 0.015625-0.09375 0-0.17578-0.03125-0.30469-0.09375-0.39062-0.054688-0.082031-0.13672-0.125-0.25-0.125-0.15625 0-0.27734 0.0625-0.35938 0.1875-0.085937 0.125-0.125 0.3125-0.125 0.5625v1.25h-0.82812v-1.3281c0-0.28125-0.027344-0.46094-0.078125-0.54688-0.042969-0.082031-0.125-0.125-0.25-0.125-0.15625 0-0.28125 0.070312-0.375 0.20312-0.085937 0.125-0.125 0.30859-0.125 0.54688v1.25h-0.8125v-2.5625h0.8125v0.375c0.10156-0.13281 0.21875-0.23828 0.34375-0.3125 0.13281-0.070312 0.28125-0.10938 0.4375-0.10938 0.17578 0 0.33203 0.042969 0.46875 0.125 0.13281 0.085937 0.23828 0.20312 0.3125 0.35938z"/>
  </symbol>
  <symbol id="o" overflow="visible">
   <path d="m2.9688-1.5625v1.5625h-0.82812v-1.1875c0-0.21875-0.007813-0.36719-0.015625-0.45312-0.011719-0.082031-0.027344-0.14453-0.046875-0.1875-0.03125-0.050781-0.078125-0.09375-0.14062-0.125-0.054688-0.03125-0.11719-0.046875-0.1875-0.046875-0.16797 0-0.30469 0.070312-0.40625 0.20312-0.09375 0.125-0.14062 0.30859-0.14062 0.54688v1.25h-0.8125v-3.5469h0.8125v1.3594c0.125-0.14453 0.25391-0.25 0.39062-0.3125 0.14453-0.070312 0.30078-0.10938 0.46875-0.10938 0.28906 0 0.51562 0.089844 0.67188 0.26562 0.15625 0.17969 0.23438 0.4375 0.23438 0.78125z"/>
  </symbol>
  <symbol id="n" overflow="visible">
   <path d="m0.42188-3.4062h0.98438l1.25 2.3438v-2.3438h0.82812v3.4062h-0.98438l-1.2344-2.3438v2.3438h-0.84375z"/>
  </symbol>
  <symbol id="m" overflow="visible">
   <path d="m0.42188-3.4062h1.4688c0.42578 0 0.75391 0.10156 0.98438 0.29688 0.23828 0.1875 0.35938 0.46094 0.35938 0.8125 0 0.35547-0.12109 0.63281-0.35938 0.82812-0.23047 0.1875-0.55859 0.28125-0.98438 0.28125h-0.57812v1.1875h-0.89062zm0.89062 0.64062v0.95312h0.48438c0.16406 0 0.29688-0.039062 0.39062-0.125 0.09375-0.082031 0.14062-0.20312 0.14062-0.35938 0-0.14453-0.046875-0.25781-0.14062-0.34375-0.09375-0.082031-0.22656-0.125-0.39062-0.125z"/>
  </symbol>
  <symbol id="l" overflow="visible">
   <path d="m0.39062-2.5625h0.8125v2.5156c0 0.34375-0.085937 0.60156-0.25 0.78125-0.15625 0.1875-0.39062 0.28125-0.70312 0.28125h-0.40625v-0.54688h0.14062c0.15625 0 0.25781-0.039062 0.3125-0.10938 0.0625-0.0625 0.09375-0.19922 0.09375-0.40625zm0-0.98438h0.8125v0.65625h-0.8125z"/>
  </symbol>
  <symbol id="k" overflow="visible">
   <path d="m2.4531-2.4688v0.65625c-0.10547-0.070312-0.21484-0.125-0.32812-0.15625-0.11719-0.039062-0.23047-0.0625-0.34375-0.0625-0.23047 0-0.41406 0.070312-0.54688 0.20312-0.125 0.125-0.1875 0.30859-0.1875 0.54688 0 0.24219 0.0625 0.42969 0.1875 0.5625 0.13281 0.13672 0.31641 0.20312 0.54688 0.20312 0.125 0 0.24219-0.015625 0.35938-0.046875 0.11328-0.039062 0.21875-0.10156 0.3125-0.1875v0.67188c-0.125 0.054688-0.25781 0.085938-0.39062 0.10938-0.125 0.019531-0.25781 0.03125-0.39062 0.03125-0.46094 0-0.82031-0.11328-1.0781-0.34375-0.26172-0.23828-0.39062-0.57031-0.39062-1 0-0.41406 0.12891-0.73828 0.39062-0.96875 0.25781-0.23828 0.61719-0.35938 1.0781-0.35938 0.13281 0 0.26562 0.011719 0.39062 0.03125 0.13281 0.023437 0.26562 0.058594 0.39062 0.10938z"/>
  </symbol>
 </defs>
 <g>
  <path d="m348.41 31.359c-13.535 1.9609-23.613 4.668-33.039 8.8672-4.8516 2.1484-9.4258 3.8281-10.172 3.8281s-4.5742-0.74609-8.3984-1.5859c-10.172-2.332-30.613-1.4922-43.586 1.7734-17.641 4.3867-35 12.414-52.172 23.988-42.652 28.746-76.535 80.172-81.668 124.13-1.1211 9.6133-1.1211 9.707-5.2266 13.906-24.828 25.105-33.973 75.508-23.055 126.46 8.3086 38.922 34.535 83.066 60.945 102.48 8.6797 6.3477 9.2383 6.9062 10.266 11.387 0.55859 2.5195 2.8945 8.4922 5.2266 13.16 12.973 26.785 42.375 51.613 78.398 66.172 43.309 17.453 98.559 19.039 134.68 3.7344l10.172-4.1992 6.4414 1.5859c9.8008 2.4258 28.934 2.2383 41.348-0.55859 38.266-8.3984 76.066-33.691 102.29-68.691 13.254-17.547 19.508-28.559 26.879-47.133 5.2266-13.066 7.8398-22.961 8.8672-34.066 0.83984-8.3086 0.93359-8.3984 5.3203-12.973 12.414-12.785 21.465-33.227 25.668-57.961 1.8672-10.641 2.0547-14.375 1.5859-30.332-0.65234-26.508-4.0117-43.215-13.254-66.828-12.414-31.828-31.547-58.801-53.293-75.133-5.6016-4.1992-8.7734-7.1875-8.7734-8.3086 0-3.0781-4.293-13.625-8.4922-21.094-18.012-31.547-60.762-59.734-105.09-69.441-21.281-4.668-52.547-6.0664-71.867-3.1719zm37.801 2.332c38.359 4.1992 77.934 22.398 102.95 47.414 10.641 10.641 21.188 25.574 23.613 33.414l0.65234 1.9609-5.8789-1.8672c-7.4648-2.4258-24.734-3.2656-35.375-1.6797-22.121 3.1719-44.988 14.094-62.719 29.867-6.7188 6.0664-15.586 19.414-19.414 29.309-5.1328 13.16-6.7188 23.238-6.1602 38.828 0.28125 7.4648 0.83984 14.559 1.2148 15.773l0.65234 2.2383-17.172-0.55859c-16.148-0.46484-37.426-3.2656-39.293-5.1328-0.375-0.375 0.93359-3.8281 2.8945-7.6523 16.613-31.828 25.574-71.961 22.586-100.89-2.4258-22.961-10.453-40.414-17.734-38.641-4.9453 1.2148-7.7461 3.6406-9.5195 8.2148l-1.7734 4.4805 3.1719 5.7852c7.5586 13.535 11.387 32.105 10.453 50.586-1.1211 22.309-7.6523 49.465-16.613 68.785-2.8945 6.2539-3.0781 6.5352-5.7852 5.9727-3.9219-0.83984-16.52-6.3477-22.773-10.078-6.7188-4.0117-18.012-14.559-23.055-21.746-9.332-13.066-14-26.32-15.398-43.027-1.7734-23.148 3.3594-47.039 14.375-65.801 4.293-7.1875 11.762-16.238 16.332-19.414 2.5195-1.8672 2.6133-1.8672 11.852 0.55859 6.7188 1.6797 10.922 2.2383 15.492 1.9609 3.4531-0.1875 6.5352-0.55859 6.8125-0.83984 0.55859-0.65234-2.332-4.293-8.9609-11.199l-4.293-4.5742 6.8125-2.8008c10.641-4.3867 23.895-7.375 42.84-9.6133 6.2539-0.74609 20.719-0.55859 29.215 0.375zm-105.09 22.867 3.5469 0.65234-6.9062 7.2812c-5.2266 5.6016-8.1211 9.8008-12.039 17.359-9.6133 18.945-13.348 35.84-12.414 56.746 0.74609 17.641 2.6133 26.227 8.0273 37.332 9.4258 19.133 23.332 32.668 44.055 42.746 6.5352 3.1719 11.852 6.1602 11.945 6.7188 0.09375 4.668-30.988 47.508-32.852 45.266-0.1875-0.28125-2.8945-4.1992-5.8789-8.7734-19.32-29.398-44.613-52.922-71.215-66.266-19.133-9.6133-41.719-13.254-44.988-7.1875-0.46484 0.93359-1.1211 3.4531-1.4922 5.6016-0.55859 3.4531-0.28125 4.1992 2.707 7.8398l3.3594 4.1055 9.6133 0.55859c26.32 1.5859 50.586 14.84 78.215 42.652 6.9062 7 15.121 16.238 18.199 20.441l5.5078 7.8398-4.1055 3.6406c-12.133 10.641-26.602 17.922-40.973 20.906-10.453 2.0547-28.375 1.3984-38.172-1.3984-31.547-9.1484-62.066-37.801-71.027-66.734-2.9883-9.8008-2.8945-10.266 5.3203-19.227 4.3867-4.8516 8.1211-9.9883 9.4258-12.973 2.332-5.4141 2.1484-6.3477-0.65234-4.8516-1.1211 0.55859-3.5469 1.0273-5.6016 1.0273-2.0547 0-5.5078 0.65234-7.6523 1.3984-2.1484 0.74609-4.0117 1.3984-4.1055 1.3984s0.09375-2.8008 0.46484-6.3477c1.9609-18.199 12.133-44.332 24.359-62.719 24.641-36.867 68.691-66.922 107.33-73.266 14.652-2.332 21.746-2.8008 28-1.7734zm227.08 61.133 6.5352 2.2383 3.0781 10.172c1.8672 6.3477 4.1992 11.762 6.0664 14.375 3.3594 4.7617 5.3203 5.8789 5.3203 3.2656 0-1.0273 0.93359-3.6406 1.9609-5.8789 1.1211-2.2383 2.2383-5.6914 2.5195-7.6523 0.1875-1.9609 0.74609-3.5469 1.1211-3.5469 1.3086 0 12.691 9.2383 17.359 14.094 23.148 24.359 37.238 51.238 43.773 83.441 7.5586 37.895 4.668 69.719-9.1484 99.68-3.1719 6.9062-8.7734 15.586-9.9883 15.586-0.28125 0-1.1211-2.6133-1.7734-5.6914-3.5469-17.266-19.973-39.668-38.922-53.293-8.0273-5.6914-22.121-13.066-33.039-17.172-6.7188-2.5195-7.6523-2.6133-23.332-2.6133-15.121 0-16.988 0.1875-24.734 2.6133-10.828 3.2656-23.613 9.6133-32.105 16.055-3.7344 2.8008-7.0938 5.0391-7.4648 5.0391-1.0273 0-8.9609-13.719-13.16-22.68-3.9219-8.4922-10.734-27.535-10.172-28.094 0.1875-0.28125 6.0664-0.83984 12.973-1.3984 29.309-2.4258 50.961-8.0273 73.734-19.039 18.48-8.9609 34.254-21.465 42.465-33.602 4.5742-6.7188 4.4805-10.734-0.1875-14.652-3.1719-2.6133-4.0117-2.8945-8.0273-2.332-6.2539 0.74609-6.3477 0.83984-10.453 7.6523-2.0547 3.4531-7.0938 9.6133-11.199 13.812-15.867 16.148-38.734 27.535-70.934 35.465-8.6797 2.1484-30.238 5.4141-31.078 4.668-1.1211-0.93359-2.9883-16.613-2.9883-24.734 0-22.492 7.6523-41.16 23.332-57.027 15.027-15.215 33.133-24.734 56.746-29.867 11.852-2.6133 32.574-2.0547 41.719 1.1211zm-386.96 115.92c5.6016 21.559 26.32 45.828 50.773 59.359 19.414 10.734 35.652 14.375 54.133 12.227 16.426-1.8672 33.973-8.8672 46.945-18.762 3.1719-2.332 6.1602-4.5742 6.7188-4.9453 1.2148-0.74609 8.2148 10.453 13.348 21.375 3.7344 8.0273 11.105 27.625 11.105 29.398 0 0.55859-2.6133 0.93359-5.8789 0.93359-8.8672 0-28.652 2.5195-40.602 5.2266-30.801 6.9062-58.52 21.094-75.039 38.547-12.691 13.348-14.375 19.133-7.1875 24.359 3.1719 2.2383 4.0117 2.4258 7.5586 1.7734 2.2383-0.375 4.4805-0.74609 5.0391-0.83984 0.55859 0 2.9883-3.1719 5.5078-7.0938 13.066-20.719 37.52-36.492 71.398-46.105 12.508-3.5469 25.668-6.1602 34.625-7l7.0938-0.65234 1.3086 6.3477c1.8672 9.4258 1.6797 30.988-0.46484 38.641-2.1484 7.8398-6.7188 17.734-11.945 25.852-12.508 19.227-37.801 34.906-66.078 40.973-11.387 2.4258-29.68 2.2383-39.668-0.46484-4.0117-1.1211-7.7461-2.332-8.1211-2.707s-2.0547-5.0391-3.6406-10.453c-2.8945-9.707-5.5078-14.84-9.1484-18.105-1.9609-1.7734-1.9609-1.7734-1.9609 0.46484 0 1.3086-0.46484 2.8008-1.0273 3.3594-0.55859 0.55859-1.8672 4.0117-2.9883 7.6523l-2.0547 6.625-7.4648-5.9727c-10.734-8.5859-23.895-23.895-32.199-37.426-10.453-16.988-17.922-36.68-22.121-58.148-2.2383-11.387-2.5195-15.027-2.5195-33.32-0.09375-18.105 0.1875-21.84 2.1484-31.266 2.2383-11.293 6.8125-24.734 11.574-34.066 2.8008-5.6914 8.2148-13.812 8.7734-13.254 0.09375 0.1875 1.1211 3.5469 2.0547 7.4648zm225.03-1.3086c9.8008 2.0547 20.441 3.4531 32.762 4.293l8.0273 0.65234 2.4258 9.0547c3.1719 12.133 8.2148 25.387 14.375 38.078l5.1328 10.359-4.0117 3.6406c-6.625 5.9727-21.188 23.52-28.188 33.879-4.0117 6.0664-7.0938 9.8008-8.0273 9.707-0.83984-0.09375-5.6914-1.2148-10.828-2.5195-12.602-3.2656-24.922-5.2266-37.895-5.9727l-10.922-0.55859-2.0547-8.0273c-3.0781-11.852-8.8672-27.16-14.746-39.012l-5.1328-10.453 8.4922-8.9609c9.6133-10.078 19.414-22.309 25.852-32.574l4.3867-6.9062 5.6914 1.7734c3.1719 0.93359 9.8008 2.6133 14.652 3.5469zm152.97 36.586c9.2383 2.332 26.039 10.641 35.188 17.453 13.441 9.9883 26.133 24.734 32.852 38.172 2.8945 5.6914 6.7188 17.734 6.7188 21.094 0 1.0273-3.0781 5.0391-6.9062 8.9609-6.1602 6.2539-11.762 14.746-11.762 17.734 0 1.2148 4.7617 0.65234 13.441-1.3984 2.9883-0.74609 5.6914-1.1211 5.9727-0.83984 1.2148 1.2148-2.0547 17.547-5.7852 28.84-8.2148 24.828-19.879 44.148-38.266 62.906-31.922 32.762-71.492 51.52-107.99 51.52-10.828 0-12.32-0.74609-8.3086-4.0117 11.945-10.078 23.426-32.945 27.16-53.852 1.6797-9.8008 1.4922-31.172-0.46484-41.906-3.5469-20.16-15.867-39.387-33.508-52.453-6.9062-5.1328-19.973-12.32-26.602-14.652l-3.0781-1.0273 1.4922-2.9883c6.0664-11.574 17.828-28.465 27.719-39.48l4.0117-4.4805 5.6914 8.6797c25.387 38.828 62.719 68.32 95.387 75.508 12.508 2.8008 19.508 2.2383 21.465-1.5859 0.46484-0.93359 1.1211-3.4531 1.3984-5.6016 0.46484-3.5469 0.09375-4.3867-2.8945-7.7461-3.4531-3.8281-3.4531-3.8281-11.387-4.293-18.387-0.93359-37.238-8.3086-55.348-21.465-8.5859-6.1602-22.027-18.293-29.586-26.602-7.7461-8.4922-17.641-21.281-17.734-22.867 0-1.0273 8.9609-8.4922 16.148-13.348 8.8672-5.9727 21.188-10.641 32.574-12.227 8.2148-1.1211 23.895-0.1875 32.387 1.9609zm-156.89 73.172c9.8008 1.2148 24.453 3.8281 25.012 4.4805 0.09375 0.09375-2.332 5.2266-5.3203 11.387-6.4414 13.16-12.879 30.332-15.68 41.535-7 28.559-7.375 57.215-1.0273 76.535 5.5078 16.332 9.707 20.16 18.105 16.238 2.5195-1.2148 3.5469-2.6133 5.0391-6.4414l1.7734-4.9453-3.0781-5.4141c-13.719-24.172-14.094-58.613-1.2148-100.71 2.6133-8.3086 8.5859-23.055 10.172-25.012 0.74609-0.83984 11.945 2.8945 18.668 6.3477 17.453 8.8672 29.773 21.746 38.266 40.039 5.9727 12.879 7 18.293 7 37.895 0 15.773-0.28125 18.199-2.6133 27.441-4.668 18.668-12.691 33.785-23.426 44.332l-6.0664 6.0664-11.199-2.6133c-8.4922-2.0547-12.227-2.5195-15.867-1.9609-2.6133 0.375-4.9453 0.93359-5.2266 1.3984-0.46484 0.74609 3.6406 5.8789 9.2383 11.48 1.9609 1.9609 3.4531 3.7344 3.2656 3.9219-1.5859 1.3984-13.16 5.5078-22.121 7.8398-16.238 4.0117-26.785 5.1328-45.734 4.4805-19.133-0.55859-28.746-2.332-47.691-8.6797-35.652-11.852-64.027-32.105-81.945-58.707-4.1992-6.1602-8.3086-14.188-7.6523-14.84 0.1875-0.28125 3.3594 0.46484 6.9062 1.4922 5.3203 1.5859 8.9609 1.9609 19.602 1.9609 23.801-0.09375 41.906-5.8789 62.906-19.973 16.148-10.734 26.039-22.309 32.852-38.172 5.9727-14.188 8.6797-34.535 6.5352-49.746-0.55859-4.1055-0.83984-7.7461-0.46484-8.2148 0.74609-1.3086 18.293-1.0273 30.988 0.55859z"/>
  
 </g>
</svg>
